<?xml version="1.0" ?><!-- Created with Inkscape (http://www.inkscape.org/) --><svg height="89mm" id="svg2" inkscape:version="0.91 r13725" sodipodi:docname="supp_fig_10_shakefly.svg" version="1.1" viewBox="0 0 315.35433 315.35433" width="89mm" xmlns="http://www.w3.org/2000/svg" xmlns:cc="http://creativecommons.org/ns#" xmlns:dc="http://purl.org/dc/elements/1.1/" xmlns:figurefirst="http://flyranch.github.io/figurefirst/" xmlns:inkscape="http://www.inkscape.org/namespaces/inkscape" xmlns:rdf="http://www.w3.org/1999/02/22-rdf-syntax-ns#" xmlns:sodipodi="http://sodipodi.sourceforge.net/DTD/sodipodi-0.dtd" xmlns:svg="http://www.w3.org/2000/svg" xmlns:xlink="http://www.w3.org/1999/xlink">
  <sodipodi:namedview bordercolor="#666666" borderopacity="1.0" id="base" inkscape:current-layer="layer1" inkscape:cx="126.84478" inkscape:cy="131.32362" inkscape:document-units="px" inkscape:pageopacity="0.0" inkscape:pageshadow="2" inkscape:window-height="2124" inkscape:window-maximized="1" inkscape:window-width="3742" inkscape:window-x="98" inkscape:window-y="36" inkscape:zoom="3.959798" pagecolor="#ffffff" showgrid="false"/>
  <defs id="defs4"/>
  <metadata id="metadata7">
    <rdf:RDF>
      <cc:Work rdf:about="">
        <dc:format>image/svg+xml</dc:format>
        <dc:type rdf:resource="http://purl.org/dc/dcmitype/StillImage"/>
        <dc:title/>
      </cc:Work>
    </rdf:RDF>
  </metadata>
  <g id="layer1" inkscape:groupmode="layer" inkscape:label="Layer 1" style="display:none;stroke-linecap:butt;stroke-linejoin:round;stroke-miterlimit:100000" transform="translate(0,-737.00787)">
    <g id="g4167">
      <rect height="216.93025" id="rect4155" style="opacity:1;fill:#aa0000;fill-opacity:1;stroke:none;stroke-width:1.25;stroke-linejoin:round;stroke-miterlimit:4;stroke-dasharray:none;stroke-dashoffset:0;stroke-opacity:1" width="233.59778" x="61.619305" y="762.19592">
        <figurefirst:axis figurefirst:name="shake"/>
      </rect>
      <figurefirst:figure figurefirst:name="shake"/>
    </g>
  </g>
  <g id="shake" inkscape:groupmode="layer" inkscape:label="shake" style="display:inline;stroke-linecap:butt;stroke-linejoin:round" transform="scale(1.25140607143,1.25140607143)"><figurefirst:targetlayer figurefirst:name="shake"/>
 <defs>
  <style type="text/css">
*{stroke-linecap:butt;stroke-linejoin:round;stroke-miterlimit:100000;}
  </style>
 </defs>
 <g id="figure_1">
  <g id="patch_1">
   <path d="M 0 252.283465  L 252.283465 252.283465  L 252.283465 0  L 0 0  L 0 252.283465  z " style="fill:none;"/>
  </g>
  <g id="axes_1">
   <g id="patch_2">
    <path d="M 49.295444 193.69464  L 236.173669 193.69464  L 236.173669 20.15044  L 49.295444 20.15044  L 49.295444 193.69464  z " style="fill:none;"/>
   </g>
   <g id="PolyCollection_1">
    <path clip-path="url(#p73b443b126)" d="M 92.900363 20.15044  L 92.900363 193.69464  L 111.588186 193.69464  L 111.588186 20.15044  L 111.588186 20.15044  L 92.900363 20.15044  z " style="fill:#ff0000;fill-opacity:0.3;"/>
   </g>
   <g id="line2d_1">
    <path clip-path="url(#p73b443b126)" d="M 74.212541 141.619141  L 76.212575 141.619141  L 76.712584 144.359018  L 77.212592 141.619141  L 93.212869 141.619141  L 93.712877 135.109703  L 94.212886 135.109703  L 94.712894 137.594896  L 95.212903 135.109703  L 95.712912 135.109703  L 96.21292 128.600266  L 97.712946 128.600266  L 98.212955 122.090828  L 99.212972 122.090828  L 99.712981 115.581391  L 100.712998 115.581391  L 101.213007 109.071953  L 102.713032 109.071953  L 103.213041 102.562516  L 103.71305 106.77957  L 104.213058 102.562516  L 105.213076 102.562516  L 105.713084 96.053078  L 108.213127 96.053078  L 108.713136 89.543641  L 109.713153 89.543641  L 110.213162 94.754183  L 110.71317 89.543641  L 114.213231 89.543641  L 114.71324 96.053078  L 115.213248 96.053078  L 115.713257 100.655794  L 116.213265 96.053078  L 116.713274 102.562516  L 117.713291 102.562516  L 118.2133 107.444211  L 118.713309 102.562516  L 119.213317 102.562516  L 119.713326 109.071953  L 128.213472 109.071953  L 128.713481 115.581391  L 131.213524 115.581391  L 131.713533 120.156195  L 132.213541 115.581391  L 132.71355 115.581391  L 133.213559 122.090828  L 137.213628 122.090828  L 137.713636 128.600266  L 141.713705 128.600266  L 142.213714 130.372185  L 142.713723 128.600266  L 143.213731 128.600266  L 143.71374 135.109703  L 144.713757 135.109703  L 145.213766 131.435166  L 145.713774 130.550141  L 146.213783 135.109703  L 159.214007 135.109703  L 159.714016 141.619141  L 161.214042 141.619141  L 161.71405 138.631207  L 162.214059 141.619141  L 179.714361 141.619141  L 180.21437 142.257311  L 180.714378 141.619141  L 182.214404 141.619141  L 182.714413 144.803667  L 183.214421 141.619141  L 187.714499 141.619141  L 188.214508 147.492442  L 188.714516 141.619141  L 195.714637 141.619141  L 196.214646 135.109703  L 197.214663 135.109703  L 198.21468 141.619141  L 202.214749 141.619141  L 202.714758 142.314217  L 203.214767 141.619141  L 205.214801 141.619141  L 205.71481 147.014811  L 206.214818 148.128578  L 222.715103 148.128578  L 223.215112 141.619141  L 223.71512 141.619141  L 223.71512 141.619141  " style="fill:none;stroke:#0000ff;stroke-linecap:square;"/>
   </g>
   <g id="line2d_2">
    <path clip-path="url(#p73b443b126)" d="M 74.212541 155.505941  L 75.712567 155.505941  L 76.212575 158.977641  L 78.712618 158.977641  L 79.212627 155.505941  L 80.712653 155.505941  L 81.212661 155.869494  L 81.71267 155.505941  L 87.212765 155.505941  L 87.712774 152.034241  L 88.212782 152.034241  L 88.712791 155.505941  L 90.712825 155.505941  L 91.212834 157.42188  L 91.712843 155.505941  L 94.712894 155.505941  L 95.212903 152.034241  L 95.712912 152.034241  L 96.21292 148.562541  L 96.712929 148.562541  L 97.212938 146.867349  L 97.712946 141.619141  L 98.212955 141.619141  L 98.712963 138.147441  L 99.212972 137.97513  L 101.213007 124.260641  L 101.713015 124.260641  L 102.213024 124.087409  L 102.713032 120.788941  L 103.213041 120.788941  L 104.213058 113.845541  L 104.713067 113.845541  L 105.213076 110.373841  L 105.713084 110.373841  L 106.713101 103.430441  L 107.713119 103.430441  L 108.213127 99.958741  L 108.713136 99.958741  L 109.213145 96.487041  L 110.213162 96.487041  L 110.71317 93.015341  L 111.713188 93.015341  L 112.213196 91.291657  L 112.713205 93.015341  L 113.213214 93.015341  L 113.713222 96.487041  L 114.213231 93.207337  L 114.71324 96.487041  L 115.713257 99.958741  L 116.213265 103.213834  L 116.713274 103.430441  L 117.213283 103.430441  L 117.713291 106.441412  L 118.2133 106.902141  L 118.713309 106.902141  L 119.213317 107.341736  L 119.713326 110.373841  L 120.213334 110.373841  L 120.713343 113.845541  L 121.213352 112.439523  L 121.71336 110.698411  L 122.213369 110.502557  L 122.713378 113.845541  L 123.713395 113.845541  L 124.213403 112.250368  L 124.713412 113.845541  L 125.213421 113.295877  L 125.713429 113.845541  L 127.713464 113.845541  L 128.213472 117.317241  L 128.713481 117.317241  L 129.21349 113.845541  L 129.713498 114.228976  L 130.713516 116.895076  L 131.213524 117.317241  L 133.213559 117.317241  L 133.713567 120.788941  L 134.213576 120.788941  L 134.713585 119.27905  L 135.213593 120.647722  L 135.713602 120.191133  L 136.21361 120.788941  L 143.213731 120.788941  L 143.71374 123.045228  L 144.213749 120.788941  L 144.713757 124.260641  L 145.713774 124.260641  L 146.213783 124.713277  L 146.713792 124.260641  L 147.2138 124.260641  L 147.713809 127.732341  L 150.713861 127.732341  L 151.213869 129.716087  L 151.713878 127.732341  L 152.213887 127.732341  L 152.713895 129.184686  L 153.213904 131.204041  L 155.713947 131.204041  L 156.213956 127.732341  L 156.713964 130.375192  L 157.213973 127.732341  L 158.713999 127.732341  L 159.214007 129.235757  L 159.714016 131.204041  L 161.71405 131.204041  L 162.214059 132.206593  L 162.714068 131.204041  L 163.214076 131.204041  L 163.714085 134.675741  L 166.214128 134.675741  L 166.714137 136.280302  L 167.214145 134.675741  L 167.714154 138.147441  L 170.214197 138.147441  L 170.714206 139.159573  L 171.214214 139.667561  L 171.714223 138.147441  L 172.214232 138.147441  L 172.71424 141.619141  L 176.214301 141.619141  L 176.714309 142.996989  L 177.214318 143.172761  L 177.714327 141.619141  L 178.714344 141.619141  L 179.214352 145.090841  L 182.714413 145.090841  L 183.214421 145.705643  L 183.71443 145.090841  L 184.714447 145.090841  L 185.214456 146.158354  L 185.714465 145.090841  L 186.714482 145.090841  L 187.21449 147.462529  L 187.714499 145.090841  L 189.214525 145.090841  L 189.714534 147.565726  L 190.214542 147.456215  L 190.714551 145.090841  L 191.214559 145.090841  L 191.714568 148.562541  L 194.214611 148.562541  L 194.71462 152.034241  L 196.214646 152.034241  L 196.714654 155.505941  L 197.714672 155.505941  L 198.21468 158.977641  L 213.714948 158.977641  L 214.214956 155.505941  L 215.214974 155.505941  L 215.714982 158.491581  L 216.214991 155.505941  L 220.715068 155.505941  L 221.215077 158.977641  L 223.71512 158.977641  L 223.71512 158.977641  " style="fill:none;stroke:#0000ff;stroke-linecap:square;"/>
   </g>
   <g id="line2d_3">
    <path clip-path="url(#p73b443b126)" d="M 74.212541 154.638016  L 78.712618 154.661557  L 79.212627 157.892734  L 83.212696 157.892734  L 83.712705 161.147453  L 87.712774 161.147453  L 88.212782 164.402172  L 91.712843 164.402172  L 92.212851 161.723017  L 92.71286 164.402172  L 93.212869 164.402172  L 93.712877 161.147453  L 94.712894 161.147453  L 95.212903 157.892734  L 95.712912 157.892734  L 96.21292 154.638016  L 96.712929 154.638016  L 97.712946 148.128578  L 98.212955 148.128578  L 99.212972 141.619141  L 99.712981 141.619141  L 100.712998 135.109703  L 101.213007 135.109703  L 102.213024 128.600266  L 102.713032 128.600266  L 103.213041 125.345547  L 104.213058 125.345547  L 105.213076 122.090828  L 105.713084 122.090828  L 106.713101 115.665387  L 107.21311 115.581391  L 107.713119 114.295337  L 108.213127 112.326672  L 108.713136 112.326672  L 109.213145 110.455547  L 109.713153 109.071953  L 110.71317 109.071953  L 111.213179 105.817234  L 111.713188 105.680938  L 112.713205 102.562516  L 115.213248 102.562516  L 115.713257 105.817234  L 117.213283 105.822115  L 117.713291 108.869579  L 118.2133 109.071953  L 120.713343 109.071953  L 121.213352 110.945549  L 121.71336 112.326672  L 122.713378 112.326672  L 123.213386 115.581391  L 123.713395 115.581391  L 124.213403 114.083198  L 124.713412 115.581391  L 125.213421 115.581391  L 125.713429 118.836109  L 126.213438 118.836109  L 126.713447 119.220341  L 127.713464 125.345547  L 128.713481 125.345547  L 129.21349 128.600266  L 132.213541 128.600266  L 132.71355 131.6164  L 133.213559 128.600266  L 133.713567 129.125522  L 134.213576 128.600266  L 134.713585 128.600266  L 135.213593 128.748555  L 135.713602 128.600266  L 136.21361 131.854984  L 137.213628 131.854984  L 137.713636 133.3299  L 138.213645 132.383719  L 138.713654 131.854984  L 139.213662 135.109703  L 144.713757 135.109703  L 145.213766 136.60152  L 145.713774 135.109703  L 146.213783 135.631818  L 146.713792 135.109703  L 147.2138 138.364422  L 149.713843 138.364422  L 150.213852 140.79404  L 150.713861 138.759406  L 151.213869 141.619141  L 156.713964 141.619141  L 157.213973 142.745259  L 157.713981 141.619141  L 158.21399 144.178841  L 158.713999 144.873859  L 159.714016 144.873859  L 160.214025 145.876148  L 160.714033 144.873859  L 161.214042 148.128578  L 162.714068 148.128578  L 163.214076 150.284878  L 163.714085 151.383297  L 165.714119 151.383297  L 166.214128 148.128578  L 167.214145 148.128578  L 167.714154 150.345158  L 168.214163 148.128578  L 168.714171 148.861831  L 169.21418 148.128578  L 170.214197 148.128578  L 170.714206 150.294101  L 171.214214 151.383297  L 177.714327 151.383297  L 178.214335 154.638016  L 179.714361 154.638016  L 180.21437 157.832349  L 180.714378 155.102199  L 181.214387 154.638016  L 182.714413 154.638016  L 183.214421 157.892734  L 199.714706 157.892734  L 200.214715 154.638016  L 200.714723 155.241759  L 201.214732 154.638016  L 203.214767 154.638016  L 203.714775 154.08901  L 204.214784 151.383297  L 207.714844 151.383297  L 208.214853 153.930419  L 208.714861 151.383297  L 209.21487 152.365254  L 209.714879 151.383297  L 210.214887 151.383297  L 210.714896 153.571641  L 211.214905 154.090878  L 211.714913 151.383297  L 212.214922 151.383297  L 212.71493 154.638016  L 220.21506 154.638016  L 220.715068 155.582238  L 221.215077 157.892734  L 221.715086 154.638016  L 223.215112 154.638016  L 223.71512 157.892734  L 223.71512 157.892734  " style="fill:none;stroke:#0000ff;stroke-linecap:square;"/>
   </g>
   <g id="line2d_4">
    <path clip-path="url(#p73b443b126)" d="M 74.212541 119.921016  L 74.712549 121.071167  L 75.212558 119.921016  L 75.712567 123.003365  L 76.212575 124.260641  L 78.21261 124.260641  L 78.712618 126.91227  L 79.212627 125.252246  L 79.712636 128.600266  L 83.712705 128.600266  L 84.212713 132.939891  L 84.712722 128.600266  L 85.712739 128.600266  L 86.212748 132.939891  L 88.712791 132.939891  L 89.2128 137.279516  L 93.212869 137.279516  L 93.712877 132.939891  L 94.212886 132.939891  L 94.712894 128.600266  L 95.712912 128.600266  L 96.21292 124.260641  L 96.712929 121.463653  L 97.212938 119.921016  L 97.712946 115.581391  L 98.212955 115.581391  L 98.712963 111.241766  L 99.212972 111.241766  L 99.712981 108.331096  L 100.212989 106.902141  L 100.712998 102.562516  L 101.713015 102.562516  L 102.213024 99.346872  L 102.713032 102.562516  L 103.213041 98.222891  L 103.71305 96.995618  L 104.213058 93.883266  L 105.213076 93.883266  L 105.713084 89.543641  L 106.213093 89.543641  L 106.713101 88.538543  L 107.21311 85.204016  L 107.713119 84.105208  L 108.213127 80.864391  L 108.713136 80.864391  L 109.213145 77.848913  L 109.713153 77.238923  L 110.213162 77.054649  L 110.71317 76.524766  L 111.213179 76.524766  L 111.713188 74.687571  L 112.213196 73.352079  L 112.713205 73.028377  L 113.213214 76.524766  L 114.213231 76.524766  L 114.71324 78.82956  L 115.213248 76.524766  L 115.713257 80.864391  L 116.213265 80.864391  L 116.713274 85.204016  L 117.213283 80.864391  L 117.713291 85.204016  L 118.2133 85.204016  L 118.713309 89.543641  L 119.213317 89.543641  L 119.713326 93.883266  L 120.213334 90.339075  L 120.713343 93.883266  L 121.213352 98.222891  L 121.71336 98.222891  L 122.713378 93.883266  L 123.213386 94.519618  L 123.713395 98.222891  L 124.213403 98.222891  L 124.713412 93.883266  L 125.213421 98.02041  L 125.713429 98.222891  L 126.213438 98.222891  L 126.713447 102.562516  L 137.213628 102.562516  L 137.713636 106.902141  L 138.713654 106.902141  L 139.213662 109.257751  L 139.713671 106.902141  L 141.213697 106.902141  L 141.713705 111.241766  L 142.213714 111.241766  L 142.713723 110.675292  L 143.213731 112.018344  L 143.71374 113.73333  L 144.213749 111.241766  L 145.213766 111.241766  L 145.713774 115.581391  L 148.213818 115.581391  L 148.713826 119.921016  L 151.213869 119.921016  L 151.713878 120.409787  L 152.213887 124.260641  L 152.713895 126.189682  L 153.213904 128.600266  L 153.713912 128.600266  L 154.213921 131.219923  L 154.71393 132.939891  L 155.713947 132.939891  L 156.213956 133.308653  L 156.713964 132.939891  L 157.213973 137.279516  L 158.21399 137.279516  L 158.713999 132.939891  L 159.214007 132.939891  L 159.714016 137.108284  L 160.214025 132.939891  L 166.214128 132.939891  L 166.714137 128.600266  L 167.214145 128.600266  L 167.714154 130.671467  L 168.214163 128.600266  L 168.714171 129.67166  L 169.21418 128.600266  L 182.214404 128.600266  L 182.714413 130.3842  L 183.214421 128.600266  L 183.71443 132.939891  L 184.214439 132.939891  L 184.714447 128.600266  L 185.214456 128.600266  L 186.214473 132.700733  L 186.714482 128.600266  L 189.714534 128.600266  L 190.214542 132.939891  L 190.714551 132.939891  L 191.214559 136.729717  L 191.714568 137.279516  L 194.71462 137.279516  L 195.214628 132.939891  L 195.714637 132.939891  L 196.214646 134.745577  L 196.714654 132.939891  L 199.714706 132.939891  L 200.214715 137.279516  L 204.214784 137.279516  L 204.714792 138.114103  L 205.214801 137.279516  L 206.714827 137.279516  L 207.214836 141.619141  L 209.21487 141.619141  L 210.214887 145.958766  L 214.714965 145.958766  L 215.214974 141.619141  L 217.215008 141.619141  L 217.715017 145.885778  L 218.215025 141.619141  L 219.215043 141.619141  L 219.715051 145.575917  L 220.21506 144.510701  L 220.715068 141.619141  L 222.215094 141.619141  L 222.715103 145.127938  L 223.215112 141.619141  L 223.71512 145.958766  L 223.71512 145.958766  " style="fill:none;stroke:#0000ff;stroke-linecap:square;"/>
   </g>
   <g id="line2d_5">
    <path clip-path="url(#p73b443b126)" d="M 74.212541 178.07199  L 86.212748 178.07199  L 86.712756 176.067666  L 87.212765 178.07199  L 93.712877 178.07199  L 94.212886 176.235201  L 94.712894 178.07199  L 99.712981 178.07199  L 100.212989 177.378234  L 100.712998 178.07199  L 101.713015 178.07199  L 102.213024 175.468215  L 103.71305 175.468215  L 104.213058 173.077348  L 104.713067 175.468215  L 105.213076 174.677402  L 105.713084 172.864441  L 106.213093 172.864441  L 106.713101 170.260666  L 107.713119 170.260666  L 108.213127 167.656891  L 109.713153 167.656891  L 110.71317 165.053116  L 116.213265 165.053116  L 116.713274 162.449341  L 117.213283 163.128459  L 117.713291 163.360749  L 118.2133 162.449341  L 119.713326 162.449341  L 120.213334 163.221449  L 120.713343 165.053116  L 121.213352 162.449341  L 122.713378 162.449341  L 123.713395 163.962295  L 124.213403 162.449341  L 125.713429 162.449341  L 126.213438 164.3836  L 126.713447 165.053116  L 128.213472 165.053116  L 128.713481 167.656891  L 136.713619 167.656891  L 137.213628 170.260666  L 137.713636 170.260666  L 138.213645 168.813492  L 138.713654 170.260666  L 146.213783 170.260666  L 146.713792 172.257536  L 147.2138 170.260666  L 149.213835 170.260666  L 149.713843 170.507375  L 150.213852 170.260666  L 153.713912 170.260666  L 154.213921 172.864441  L 171.714223 172.864441  L 172.214232 173.327774  L 172.71424 172.864441  L 181.214387 172.864441  L 181.714396 173.826367  L 182.214404 172.864441  L 184.214439 172.864441  L 184.714447 175.468215  L 185.714465 175.468215  L 186.214473 172.864441  L 186.714482 175.468215  L 214.214956 175.468215  L 214.714965 173.27621  L 215.214974 175.468215  L 221.715086 175.468215  L 222.215094 174.883768  L 222.715103 175.468215  L 223.71512 175.468215  L 223.71512 175.468215  " style="fill:none;stroke:#000000;stroke-linecap:square;"/>
   </g>
   <g id="line2d_6">
    <path clip-path="url(#p73b443b126)" d="M 74.212541 172.864441  L 74.712549 172.864441  L 75.212558 172.864441  L 75.712567 173.006793  L 76.212575 175.296802  L 76.712584 172.864441  L 82.712687 172.864441  L 83.212696 173.184786  L 83.712705 172.864441  L 84.212713 174.396561  L 84.712722 173.018602  L 85.21273 172.864441  L 89.712808 172.864441  L 90.212817 175.468215  L 90.712825 172.864441  L 91.212834 175.468215  L 92.212851 175.468215  L 92.71286 172.940141  L 94.212886 172.713824  L 94.712894 170.260666  L 95.212903 170.260666  L 95.712912 167.656891  L 96.21292 167.656891  L 97.212938 162.750696  L 97.712946 162.449341  L 99.212972 154.638016  L 99.712981 154.638016  L 100.212989 152.492392  L 100.712998 152.034241  L 101.713015 146.826691  L 102.213024 148.445903  L 102.713032 146.826691  L 103.71305 141.619141  L 104.213058 141.619141  L 104.713067 139.015366  L 106.213093 139.015366  L 106.713101 137.340163  L 107.21311 136.411591  L 108.213127 136.411591  L 108.713136 133.807816  L 109.213145 133.807816  L 109.713153 132.298744  L 110.213162 133.807816  L 110.71317 131.204041  L 111.213179 131.204041  L 111.713188 129.52986  L 112.213196 128.600266  L 114.71324 128.600266  L 115.213248 130.66185  L 115.713257 131.204041  L 116.213265 129.574289  L 117.213283 132.935324  L 117.713291 133.807816  L 118.713309 133.807816  L 119.213317 134.291118  L 119.713326 136.411591  L 120.213334 136.411591  L 120.713343 138.207713  L 121.213352 139.015366  L 122.713378 139.015366  L 123.213386 139.953746  L 123.713395 139.698463  L 124.213403 141.619141  L 125.713429 141.619141  L 126.213438 142.622866  L 126.713447 144.222916  L 128.213472 144.222916  L 128.713481 144.592137  L 129.21349 146.826691  L 130.213507 146.826691  L 130.713516 149.430466  L 131.213524 146.826691  L 131.713533 147.54922  L 132.213541 146.826691  L 134.713585 146.826691  L 135.213593 149.430466  L 135.713602 149.430466  L 136.21361 151.396593  L 136.713619 149.430466  L 137.213628 152.034241  L 138.213645 152.034241  L 138.713654 154.161807  L 139.213662 152.034241  L 139.713671 154.638016  L 140.713688 154.638016  L 141.213697 156.639078  L 141.713705 155.799395  L 142.213714 154.638016  L 142.713723 154.638016  L 143.213731 157.241791  L 146.213783 157.241791  L 146.713792 157.609225  L 147.2138 157.241791  L 147.713809 157.241791  L 148.213818 159.845566  L 151.213869 159.845566  L 151.713878 161.7244  L 152.213887 159.845566  L 152.713895 160.735621  L 153.213904 159.845566  L 153.713912 162.449341  L 157.713981 162.449341  L 158.21399 163.770658  L 158.713999 162.449341  L 159.714016 162.449341  L 160.214025 164.131746  L 160.714033 162.449341  L 161.71405 162.449341  L 162.214059 165.053116  L 167.214145 165.053116  L 167.714154 166.912033  L 168.214163 165.053116  L 172.214232 165.053116  L 172.71424 167.656891  L 180.714378 167.656891  L 181.214387 168.674501  L 181.714396 167.656891  L 188.214508 167.656891  L 188.714516 170.260666  L 201.214732 170.260666  L 201.714741 170.863014  L 202.214749 170.260666  L 204.714792 170.260666  L 205.214801 171.546143  L 205.71481 170.260666  L 211.214905 170.260666  L 211.714913 170.417236  L 212.214922 170.260666  L 213.214939 170.260666  L 213.714948 172.864441  L 223.71512 172.864441  L 223.71512 172.864441  " style="fill:none;stroke:#000000;stroke-linecap:square;"/>
   </g>
   <g id="line2d_7">
    <path clip-path="url(#p73b443b126)" d="M 74.212541 175.468215  L 77.212592 175.468215  L 77.712601 175.695532  L 78.21261 175.468215  L 83.712705 175.468215  L 84.212713 176.690051  L 84.712722 175.553452  L 85.712739 175.468215  L 89.2128 175.468215  L 89.712808 178.049632  L 90.212817 175.468215  L 94.712894 175.468215  L 95.212903 172.864441  L 96.21292 172.864441  L 97.212938 167.656891  L 97.712946 167.656891  L 98.212955 165.053116  L 98.712963 165.053116  L 99.212972 162.449341  L 99.712981 162.449341  L 100.212989 161.962347  L 100.712998 161.243128  L 101.213007 159.845566  L 101.713015 157.241791  L 102.213024 157.241791  L 102.713032 154.638016  L 103.213041 156.760156  L 104.213058 152.034241  L 105.213076 152.034241  L 105.713084 149.430466  L 106.213093 149.866969  L 106.713101 149.430466  L 107.21311 146.826691  L 108.213127 146.826691  L 108.713136 144.222916  L 109.213145 144.222916  L 109.713153 141.619141  L 110.213162 143.417824  L 110.71317 141.619141  L 111.213179 141.619141  L 111.713188 139.015366  L 117.213283 139.015366  L 117.713291 141.619141  L 118.2133 141.619141  L 118.713309 144.222916  L 119.213317 144.871978  L 119.713326 144.222916  L 120.213334 146.826691  L 121.71336 146.826691  L 122.213369 147.325208  L 122.713378 147.495817  L 123.213386 146.826691  L 123.713395 149.430466  L 125.213421 149.430466  L 125.713429 152.034241  L 128.713481 152.034241  L 129.21349 154.638016  L 132.71355 154.638016  L 133.213559 157.241791  L 136.21361 157.241791  L 136.713619 158.039263  L 137.213628 157.241791  L 137.713636 157.870694  L 138.213645 159.845566  L 141.213697 159.845566  L 141.713705 161.479727  L 142.213714 159.845566  L 142.713723 161.69075  L 143.213731 159.845566  L 143.71374 162.449341  L 147.2138 162.449341  L 147.713809 163.129636  L 148.213818 164.462601  L 148.713826 162.449341  L 150.213852 162.449341  L 150.713861 165.053116  L 155.713947 165.053116  L 156.213956 166.881801  L 156.713964 165.053116  L 158.21399 165.053116  L 158.713999 165.89375  L 159.214007 165.053116  L 159.714016 165.053116  L 160.214025 167.656891  L 172.214232 167.656891  L 172.71424 170.260666  L 181.214387 170.260666  L 181.714396 170.864009  L 182.214404 170.260666  L 186.214473 170.260666  L 186.714482 170.547858  L 187.21449 171.916258  L 187.714499 170.260666  L 191.714568 170.260666  L 192.214577 172.864441  L 205.71481 172.864441  L 206.214818 174.589003  L 206.714827 172.864441  L 207.714844 172.864441  L 208.214853 174.63503  L 208.714861 172.864441  L 215.714982 172.864441  L 216.214991 175.103379  L 216.714999 172.864441  L 218.715034 172.864441  L 219.215043 175.212623  L 219.715051 172.864441  L 221.215077 172.864441  L 221.715086 173.735202  L 222.215094 172.864441  L 223.71512 172.864441  L 223.71512 172.864441  " style="fill:none;stroke:#000000;stroke-linecap:square;"/>
   </g>
   <g id="line2d_8">
    <path clip-path="url(#p73b443b126)" d="M 74.212541 170.260666  L 85.712739 170.260666  L 86.212748 172.258301  L 86.712756 170.260666  L 93.712877 170.260666  L 94.212886 171.322201  L 94.712894 170.260666  L 95.712912 170.260666  L 96.21292 170.642455  L 96.712929 170.260666  L 97.212938 171.448286  L 97.712946 170.260666  L 98.212955 170.260666  L 98.712963 171.732133  L 99.212972 170.260666  L 100.712998 170.260666  L 101.213007 167.900514  L 101.713015 170.260666  L 102.213024 170.155243  L 103.213041 165.053116  L 104.213058 165.004722  L 104.713067 159.845566  L 105.213076 159.845566  L 105.713084 157.241791  L 106.213093 157.241791  L 106.713101 156.928417  L 107.21311 152.072399  L 107.713119 153.483071  L 108.213127 149.430466  L 109.213145 149.430466  L 109.713153 146.831489  L 110.213162 149.141443  L 110.71317 146.826691  L 111.213179 146.826691  L 111.713188 144.222916  L 112.213196 145.694693  L 112.713205 144.222916  L 113.213214 144.383186  L 113.713222 144.222916  L 114.71324 144.222916  L 115.213248 145.543528  L 115.713257 144.222916  L 117.713291 144.222916  L 118.2133 146.826691  L 118.713309 144.222916  L 120.713343 144.222916  L 121.213352 145.681959  L 121.71336 144.222916  L 122.213369 144.222916  L 122.713378 146.826691  L 124.213403 146.826691  L 124.713412 149.430466  L 125.713429 149.430466  L 126.213438 149.626023  L 126.713447 149.430466  L 127.213455 149.430466  L 127.713464 151.740696  L 128.213472 152.034241  L 129.713498 152.034241  L 130.213507 153.335093  L 130.713516 152.034241  L 131.213524 154.221505  L 131.713533 154.638016  L 136.21361 154.638016  L 136.713619 157.241791  L 141.213697 157.328343  L 141.713705 159.356677  L 142.213714 157.241791  L 142.713723 157.518174  L 143.213731 157.241791  L 143.71374 159.845566  L 147.2138 159.845566  L 147.713809 160.265928  L 148.213818 159.845566  L 148.713826 159.845566  L 149.213835 161.876528  L 149.713843 159.845566  L 150.213852 160.493311  L 150.713861 159.845566  L 151.213869 159.845566  L 151.713878 162.449341  L 157.213973 162.449341  L 157.713981 163.413222  L 158.21399 162.449341  L 159.714016 162.449341  L 160.214025 163.648107  L 160.714033 162.449341  L 161.214042 162.76125  L 161.71405 162.449341  L 162.214059 162.449341  L 162.714068 164.443401  L 163.214076 163.8903  L 163.714085 162.449341  L 164.214094 162.449341  L 164.714102 165.053116  L 173.214249 165.053116  L 173.714258 166.796696  L 174.214266 165.053116  L 175.714292 165.053116  L 176.214301 167.035723  L 176.714309 165.053116  L 183.214421 165.053116  L 183.71443 167.656891  L 214.714965 167.656891  L 215.214974 169.43066  L 215.714982 167.656891  L 217.715017 167.656891  L 218.215025 169.205914  L 218.715034 167.656891  L 220.715068 167.656891  L 221.215077 168.782098  L 221.715086 167.656891  L 223.71512 167.656891  L 223.71512 167.656891  " style="fill:none;stroke:#000000;stroke-linecap:square;"/>
   </g>
   <g id="patch_3">
    <path d="M 74.212541 20.15044  L 205.027298 20.15044  " style="fill:none;"/>
   </g>
   <g id="patch_4">
    <path d="M 236.173669 193.69464  L 236.173669 20.15044  " style="fill:none;"/>
   </g>
   <g id="patch_5">
    <path d="M 74.212541 198.69464  L 205.027298 198.69464  " style="fill:none;stroke:#000000;stroke-linecap:square;stroke-linejoin:miter;stroke-width:0.5;"/>
   </g>
   <g id="patch_6">
    <path d="M 44.295444 193.69464  L 44.295444 20.15044  " style="fill:none;stroke:#000000;stroke-linecap:square;stroke-linejoin:miter;stroke-width:0.5;"/>
   </g>
   <g id="matplotlib.axis_1">
    <g id="xtick_1">
     <g id="line2d_9">
      <defs>
       <path d="M 0 0  L 0 -2.5  " id="me2c44112e6" style="stroke:#000000;stroke-width:0.5;"/>
      </defs>
      <g>
       <use style="stroke:#000000;stroke-width:0.5;" x="74.21254070010309" xlink:href="#me2c44112e6" y="198.6946404352688"/>
      </g>
     </g>
     <g id="text_1">
      <!-- &#8722;60 -->
      <defs>
       <path d="M 10.59375 35.5  L 73.1875 35.5  L 73.1875 27.203125  L 10.59375 27.203125  z " id="BitstreamVeraSans-Roman-2212"/>
       <path d="M 31.78125 66.40625  Q 24.171875 66.40625 20.328125 58.90625  Q 16.5 51.421875 16.5 36.375  Q 16.5 21.390625 20.328125 13.890625  Q 24.171875 6.390625 31.78125 6.390625  Q 39.453125 6.390625 43.28125 13.890625  Q 47.125 21.390625 47.125 36.375  Q 47.125 51.421875 43.28125 58.90625  Q 39.453125 66.40625 31.78125 66.40625  M 31.78125 74.21875  Q 44.046875 74.21875 50.515625 64.515625  Q 56.984375 54.828125 56.984375 36.375  Q 56.984375 17.96875 50.515625 8.265625  Q 44.046875 -1.421875 31.78125 -1.421875  Q 19.53125 -1.421875 13.0625 8.265625  Q 6.59375 17.96875 6.59375 36.375  Q 6.59375 54.828125 13.0625 64.515625  Q 19.53125 74.21875 31.78125 74.21875  " id="BitstreamVeraSans-Roman-30"/>
       <path d="M 33.015625 40.375  Q 26.375 40.375 22.484375 35.828125  Q 18.609375 31.296875 18.609375 23.390625  Q 18.609375 15.53125 22.484375 10.953125  Q 26.375 6.390625 33.015625 6.390625  Q 39.65625 6.390625 43.53125 10.953125  Q 47.40625 15.53125 47.40625 23.390625  Q 47.40625 31.296875 43.53125 35.828125  Q 39.65625 40.375 33.015625 40.375  M 52.59375 71.296875  L 52.59375 62.3125  Q 48.875 64.0625 45.09375 64.984375  Q 41.3125 65.921875 37.59375 65.921875  Q 27.828125 65.921875 22.671875 59.328125  Q 17.53125 52.734375 16.796875 39.40625  Q 19.671875 43.65625 24.015625 45.921875  Q 28.375 48.1875 33.59375 48.1875  Q 44.578125 48.1875 50.953125 41.515625  Q 57.328125 34.859375 57.328125 23.390625  Q 57.328125 12.15625 50.6875 5.359375  Q 44.046875 -1.421875 33.015625 -1.421875  Q 20.359375 -1.421875 13.671875 8.265625  Q 6.984375 17.96875 6.984375 36.375  Q 6.984375 53.65625 15.1875 63.9375  Q 23.390625 74.21875 37.203125 74.21875  Q 40.921875 74.21875 44.703125 73.484375  Q 48.484375 72.75 52.59375 71.296875  " id="BitstreamVeraSans-Roman-36"/>
      </defs>
      <g transform="translate(67.88113445010309 207.25370293526882)scale(0.06 -0.06)">
       <use xlink:href="#BitstreamVeraSans-Roman-2212"/>
       <use x="83.7890625" xlink:href="#BitstreamVeraSans-Roman-36"/>
       <use x="147.412109375" xlink:href="#BitstreamVeraSans-Roman-30"/>
      </g>
     </g>
    </g>
    <g id="xtick_2">
     <g id="line2d_10">
      <g>
       <use style="stroke:#000000;stroke-width:0.5;" x="92.90036314209819" xlink:href="#me2c44112e6" y="198.6946404352688"/>
      </g>
     </g>
     <g id="text_2">
      <!-- &#8722;30 -->
      <defs>
       <path d="M 40.578125 39.3125  Q 47.65625 37.796875 51.625 33  Q 55.609375 28.21875 55.609375 21.1875  Q 55.609375 10.40625 48.1875 4.484375  Q 40.765625 -1.421875 27.09375 -1.421875  Q 22.515625 -1.421875 17.65625 -0.515625  Q 12.796875 0.390625 7.625 2.203125  L 7.625 11.71875  Q 11.71875 9.328125 16.59375 8.109375  Q 21.484375 6.890625 26.8125 6.890625  Q 36.078125 6.890625 40.9375 10.546875  Q 45.796875 14.203125 45.796875 21.1875  Q 45.796875 27.640625 41.28125 31.265625  Q 36.765625 34.90625 28.71875 34.90625  L 20.21875 34.90625  L 20.21875 43.015625  L 29.109375 43.015625  Q 36.375 43.015625 40.234375 45.921875  Q 44.09375 48.828125 44.09375 54.296875  Q 44.09375 59.90625 40.109375 62.90625  Q 36.140625 65.921875 28.71875 65.921875  Q 24.65625 65.921875 20.015625 65.03125  Q 15.375 64.15625 9.8125 62.3125  L 9.8125 71.09375  Q 15.4375 72.65625 20.34375 73.4375  Q 25.25 74.21875 29.59375 74.21875  Q 40.828125 74.21875 47.359375 69.109375  Q 53.90625 64.015625 53.90625 55.328125  Q 53.90625 49.265625 50.4375 45.09375  Q 46.96875 40.921875 40.578125 39.3125  " id="BitstreamVeraSans-Roman-33"/>
      </defs>
      <g transform="translate(86.56895689209819 207.25370293526882)scale(0.06 -0.06)">
       <use xlink:href="#BitstreamVeraSans-Roman-2212"/>
       <use x="83.7890625" xlink:href="#BitstreamVeraSans-Roman-33"/>
       <use x="147.412109375" xlink:href="#BitstreamVeraSans-Roman-30"/>
      </g>
     </g>
    </g>
    <g id="xtick_3">
     <g id="line2d_11">
      <g>
       <use style="stroke:#000000;stroke-width:0.5;" x="111.5881855840933" xlink:href="#me2c44112e6" y="198.6946404352688"/>
      </g>
     </g>
     <g id="text_3">
      <!-- 0 -->
      <g transform="translate(109.6794355840933 207.25370293526882)scale(0.06 -0.06)">
       <use xlink:href="#BitstreamVeraSans-Roman-30"/>
      </g>
     </g>
    </g>
    <g id="xtick_4">
     <g id="line2d_12">
      <g>
       <use style="stroke:#000000;stroke-width:0.5;" x="130.2760080260884" xlink:href="#me2c44112e6" y="198.6946404352688"/>
      </g>
     </g>
     <g id="text_4">
      <!-- 30 -->
      <g transform="translate(126.4585080260884 207.25370293526882)scale(0.06 -0.06)">
       <use xlink:href="#BitstreamVeraSans-Roman-33"/>
       <use x="63.623046875" xlink:href="#BitstreamVeraSans-Roman-30"/>
      </g>
     </g>
    </g>
    <g id="xtick_5">
     <g id="line2d_13">
      <g>
       <use style="stroke:#000000;stroke-width:0.5;" x="148.9638304680835" xlink:href="#me2c44112e6" y="198.6946404352688"/>
      </g>
     </g>
     <g id="text_5">
      <!-- 60 -->
      <g transform="translate(145.1463304680835 207.25370293526882)scale(0.06 -0.06)">
       <use xlink:href="#BitstreamVeraSans-Roman-36"/>
       <use x="63.623046875" xlink:href="#BitstreamVeraSans-Roman-30"/>
      </g>
     </g>
    </g>
    <g id="xtick_6">
     <g id="line2d_14">
      <g>
       <use style="stroke:#000000;stroke-width:0.5;" x="167.6516529100786" xlink:href="#me2c44112e6" y="198.6946404352688"/>
      </g>
     </g>
     <g id="text_6">
      <!-- 90 -->
      <defs>
       <path d="M 10.984375 1.515625  L 10.984375 10.5  Q 14.703125 8.734375 18.5 7.8125  Q 22.3125 6.890625 25.984375 6.890625  Q 35.75 6.890625 40.890625 13.453125  Q 46.046875 20.015625 46.78125 33.40625  Q 43.953125 29.203125 39.59375 26.953125  Q 35.25 24.703125 29.984375 24.703125  Q 19.046875 24.703125 12.671875 31.3125  Q 6.296875 37.9375 6.296875 49.421875  Q 6.296875 60.640625 12.9375 67.421875  Q 19.578125 74.21875 30.609375 74.21875  Q 43.265625 74.21875 49.921875 64.515625  Q 56.59375 54.828125 56.59375 36.375  Q 56.59375 19.140625 48.40625 8.859375  Q 40.234375 -1.421875 26.421875 -1.421875  Q 22.703125 -1.421875 18.890625 -0.6875  Q 15.09375 0.046875 10.984375 1.515625  M 30.609375 32.421875  Q 37.25 32.421875 41.125 36.953125  Q 45.015625 41.5 45.015625 49.421875  Q 45.015625 57.28125 41.125 61.84375  Q 37.25 66.40625 30.609375 66.40625  Q 23.96875 66.40625 20.09375 61.84375  Q 16.21875 57.28125 16.21875 49.421875  Q 16.21875 41.5 20.09375 36.953125  Q 23.96875 32.421875 30.609375 32.421875  " id="BitstreamVeraSans-Roman-39"/>
      </defs>
      <g transform="translate(163.83415291007861 207.25370293526882)scale(0.06 -0.06)">
       <use xlink:href="#BitstreamVeraSans-Roman-39"/>
       <use x="63.623046875" xlink:href="#BitstreamVeraSans-Roman-30"/>
      </g>
     </g>
    </g>
    <g id="xtick_7">
     <g id="line2d_15">
      <g>
       <use style="stroke:#000000;stroke-width:0.5;" x="186.33947535207372" xlink:href="#me2c44112e6" y="198.6946404352688"/>
      </g>
     </g>
     <g id="text_7">
      <!-- 120 -->
      <defs>
       <path d="M 19.1875 8.296875  L 53.609375 8.296875  L 53.609375 0  L 7.328125 0  L 7.328125 8.296875  Q 12.9375 14.109375 22.625 23.890625  Q 32.328125 33.6875 34.8125 36.53125  Q 39.546875 41.84375 41.421875 45.53125  Q 43.3125 49.21875 43.3125 52.78125  Q 43.3125 58.59375 39.234375 62.25  Q 35.15625 65.921875 28.609375 65.921875  Q 23.96875 65.921875 18.8125 64.3125  Q 13.671875 62.703125 7.8125 59.421875  L 7.8125 69.390625  Q 13.765625 71.78125 18.9375 73  Q 24.125 74.21875 28.421875 74.21875  Q 39.75 74.21875 46.484375 68.546875  Q 53.21875 62.890625 53.21875 53.421875  Q 53.21875 48.921875 51.53125 44.890625  Q 49.859375 40.875 45.40625 35.40625  Q 44.1875 33.984375 37.640625 27.21875  Q 31.109375 20.453125 19.1875 8.296875  " id="BitstreamVeraSans-Roman-32"/>
       <path d="M 12.40625 8.296875  L 28.515625 8.296875  L 28.515625 63.921875  L 10.984375 60.40625  L 10.984375 69.390625  L 28.421875 72.90625  L 38.28125 72.90625  L 38.28125 8.296875  L 54.390625 8.296875  L 54.390625 0  L 12.40625 0  z " id="BitstreamVeraSans-Roman-31"/>
      </defs>
      <g transform="translate(180.61322535207373 207.25370293526882)scale(0.06 -0.06)">
       <use xlink:href="#BitstreamVeraSans-Roman-31"/>
       <use x="63.623046875" xlink:href="#BitstreamVeraSans-Roman-32"/>
       <use x="127.24609375" xlink:href="#BitstreamVeraSans-Roman-30"/>
      </g>
     </g>
    </g>
    <g id="xtick_8">
     <g id="line2d_16">
      <g>
       <use style="stroke:#000000;stroke-width:0.5;" x="205.02729779406883" xlink:href="#me2c44112e6" y="198.6946404352688"/>
      </g>
     </g>
     <g id="text_8">
      <!-- 150 -->
      <defs>
       <path d="M 10.796875 72.90625  L 49.515625 72.90625  L 49.515625 64.59375  L 19.828125 64.59375  L 19.828125 46.734375  Q 21.96875 47.46875 24.109375 47.828125  Q 26.265625 48.1875 28.421875 48.1875  Q 40.625 48.1875 47.75 41.5  Q 54.890625 34.8125 54.890625 23.390625  Q 54.890625 11.625 47.5625 5.09375  Q 40.234375 -1.421875 26.90625 -1.421875  Q 22.3125 -1.421875 17.546875 -0.640625  Q 12.796875 0.140625 7.71875 1.703125  L 7.71875 11.625  Q 12.109375 9.234375 16.796875 8.0625  Q 21.484375 6.890625 26.703125 6.890625  Q 35.15625 6.890625 40.078125 11.328125  Q 45.015625 15.765625 45.015625 23.390625  Q 45.015625 31 40.078125 35.4375  Q 35.15625 39.890625 26.703125 39.890625  Q 22.75 39.890625 18.8125 39.015625  Q 14.890625 38.140625 10.796875 36.28125  z " id="BitstreamVeraSans-Roman-35"/>
      </defs>
      <g transform="translate(199.30104779406884 207.25370293526882)scale(0.06 -0.06)">
       <use xlink:href="#BitstreamVeraSans-Roman-31"/>
       <use x="63.623046875" xlink:href="#BitstreamVeraSans-Roman-35"/>
       <use x="127.24609375" xlink:href="#BitstreamVeraSans-Roman-30"/>
      </g>
     </g>
    </g>
    <g id="text_9">
     <!-- Time, sec -->
     <defs>
      <path id="BitstreamVeraSans-Roman-20"/>
      <path d="M 52 44.1875  Q 55.375 50.25 60.0625 53.125  Q 64.75 56 71.09375 56  Q 79.640625 56 84.28125 50.015625  Q 88.921875 44.046875 88.921875 33.015625  L 88.921875 0  L 79.890625 0  L 79.890625 32.71875  Q 79.890625 40.578125 77.09375 44.375  Q 74.3125 48.1875 68.609375 48.1875  Q 61.625 48.1875 57.5625 43.546875  Q 53.515625 38.921875 53.515625 30.90625  L 53.515625 0  L 44.484375 0  L 44.484375 32.71875  Q 44.484375 40.625 41.703125 44.40625  Q 38.921875 48.1875 33.109375 48.1875  Q 26.21875 48.1875 22.15625 43.53125  Q 18.109375 38.875 18.109375 30.90625  L 18.109375 0  L 9.078125 0  L 9.078125 54.6875  L 18.109375 54.6875  L 18.109375 46.1875  Q 21.1875 51.21875 25.484375 53.609375  Q 29.78125 56 35.6875 56  Q 41.65625 56 45.828125 52.96875  Q 50 49.953125 52 44.1875  " id="BitstreamVeraSans-Roman-6d"/>
      <path d="M 11.71875 12.40625  L 22.015625 12.40625  L 22.015625 4  L 14.015625 -11.625  L 7.71875 -11.625  L 11.71875 4  z " id="BitstreamVeraSans-Roman-2c"/>
      <path d="M 9.421875 54.6875  L 18.40625 54.6875  L 18.40625 0  L 9.421875 0  z M 9.421875 75.984375  L 18.40625 75.984375  L 18.40625 64.59375  L 9.421875 64.59375  z " id="BitstreamVeraSans-Roman-69"/>
      <path d="M 56.203125 29.59375  L 56.203125 25.203125  L 14.890625 25.203125  Q 15.484375 15.921875 20.484375 11.0625  Q 25.484375 6.203125 34.421875 6.203125  Q 39.59375 6.203125 44.453125 7.46875  Q 49.3125 8.734375 54.109375 11.28125  L 54.109375 2.78125  Q 49.265625 0.734375 44.1875 -0.34375  Q 39.109375 -1.421875 33.890625 -1.421875  Q 20.796875 -1.421875 13.15625 6.1875  Q 5.515625 13.8125 5.515625 26.8125  Q 5.515625 40.234375 12.765625 48.109375  Q 20.015625 56 32.328125 56  Q 43.359375 56 49.78125 48.890625  Q 56.203125 41.796875 56.203125 29.59375  M 47.21875 32.234375  Q 47.125 39.59375 43.09375 43.984375  Q 39.0625 48.390625 32.421875 48.390625  Q 24.90625 48.390625 20.390625 44.140625  Q 15.875 39.890625 15.1875 32.171875  z " id="BitstreamVeraSans-Roman-65"/>
      <path d="M -0.296875 72.90625  L 61.375 72.90625  L 61.375 64.59375  L 35.5 64.59375  L 35.5 0  L 25.59375 0  L 25.59375 64.59375  L -0.296875 64.59375  z " id="BitstreamVeraSans-Roman-54"/>
      <path d="M 44.28125 53.078125  L 44.28125 44.578125  Q 40.484375 46.53125 36.375 47.5  Q 32.28125 48.484375 27.875 48.484375  Q 21.1875 48.484375 17.84375 46.4375  Q 14.5 44.390625 14.5 40.28125  Q 14.5 37.15625 16.890625 35.375  Q 19.28125 33.59375 26.515625 31.984375  L 29.59375 31.296875  Q 39.15625 29.25 43.1875 25.515625  Q 47.21875 21.78125 47.21875 15.09375  Q 47.21875 7.46875 41.1875 3.015625  Q 35.15625 -1.421875 24.609375 -1.421875  Q 20.21875 -1.421875 15.453125 -0.5625  Q 10.6875 0.296875 5.421875 2  L 5.421875 11.28125  Q 10.40625 8.6875 15.234375 7.390625  Q 20.0625 6.109375 24.8125 6.109375  Q 31.15625 6.109375 34.5625 8.28125  Q 37.984375 10.453125 37.984375 14.40625  Q 37.984375 18.0625 35.515625 20.015625  Q 33.0625 21.96875 24.703125 23.78125  L 21.578125 24.515625  Q 13.234375 26.265625 9.515625 29.90625  Q 5.8125 33.546875 5.8125 39.890625  Q 5.8125 47.609375 11.28125 51.796875  Q 16.75 56 26.8125 56  Q 31.78125 56 36.171875 55.265625  Q 40.578125 54.546875 44.28125 53.078125  " id="BitstreamVeraSans-Roman-73"/>
      <path d="M 48.78125 52.59375  L 48.78125 44.1875  Q 44.96875 46.296875 41.140625 47.34375  Q 37.3125 48.390625 33.40625 48.390625  Q 24.65625 48.390625 19.8125 42.84375  Q 14.984375 37.3125 14.984375 27.296875  Q 14.984375 17.28125 19.8125 11.734375  Q 24.65625 6.203125 33.40625 6.203125  Q 37.3125 6.203125 41.140625 7.25  Q 44.96875 8.296875 48.78125 10.40625  L 48.78125 2.09375  Q 45.015625 0.34375 40.984375 -0.53125  Q 36.96875 -1.421875 32.421875 -1.421875  Q 20.0625 -1.421875 12.78125 6.34375  Q 5.515625 14.109375 5.515625 27.296875  Q 5.515625 40.671875 12.859375 48.328125  Q 20.21875 56 33.015625 56  Q 37.15625 56 41.109375 55.140625  Q 45.0625 54.296875 48.78125 52.59375  " id="BitstreamVeraSans-Roman-63"/>
     </defs>
     <g transform="translate(128.33690007075177 218.06057793526884)scale(0.06 -0.06)">
      <use xlink:href="#BitstreamVeraSans-Roman-54"/>
      <use x="61.037109375" xlink:href="#BitstreamVeraSans-Roman-69"/>
      <use x="88.8203125" xlink:href="#BitstreamVeraSans-Roman-6d"/>
      <use x="186.232421875" xlink:href="#BitstreamVeraSans-Roman-65"/>
      <use x="247.755859375" xlink:href="#BitstreamVeraSans-Roman-2c"/>
      <use x="279.54296875" xlink:href="#BitstreamVeraSans-Roman-20"/>
      <use x="311.330078125" xlink:href="#BitstreamVeraSans-Roman-73"/>
      <use x="363.4296875" xlink:href="#BitstreamVeraSans-Roman-65"/>
      <use x="424.953125" xlink:href="#BitstreamVeraSans-Roman-63"/>
     </g>
    </g>
   </g>
   <g id="matplotlib.axis_2">
    <g id="ytick_1">
     <g id="line2d_17">
      <defs>
       <path d="M 0 0  L 2.5 0  " id="m03348415eb" style="stroke:#000000;stroke-width:0.5;"/>
      </defs>
      <g>
       <use style="stroke:#000000;stroke-width:0.5;" x="44.29544411077627" xlink:href="#m03348415eb" y="193.6946404352688"/>
      </g>
     </g>
     <g id="text_10">
      <!-- 0.0 -->
      <defs>
       <path d="M 10.6875 12.40625  L 21 12.40625  L 21 0  L 10.6875 0  z " id="BitstreamVeraSans-Roman-2e"/>
      </defs>
      <g transform="translate(30.753569110776276 195.35026543526882)scale(0.06 -0.06)">
       <use xlink:href="#BitstreamVeraSans-Roman-30"/>
       <use x="63.623046875" xlink:href="#BitstreamVeraSans-Roman-2e"/>
       <use x="95.41015625" xlink:href="#BitstreamVeraSans-Roman-30"/>
      </g>
     </g>
    </g>
    <g id="ytick_2">
     <g id="line2d_18">
      <g>
       <use style="stroke:#000000;stroke-width:0.5;" x="44.29544411077627" xlink:href="#m03348415eb" y="158.98580035727142"/>
      </g>
     </g>
     <g id="text_11">
      <!-- 0.2 -->
      <g transform="translate(30.753569110776276 160.64142535727143)scale(0.06 -0.06)">
       <use xlink:href="#BitstreamVeraSans-Roman-30"/>
       <use x="63.623046875" xlink:href="#BitstreamVeraSans-Roman-2e"/>
       <use x="95.41015625" xlink:href="#BitstreamVeraSans-Roman-32"/>
      </g>
     </g>
    </g>
    <g id="ytick_3">
     <g id="line2d_19">
      <g>
       <use style="stroke:#000000;stroke-width:0.5;" x="44.29544411077627" xlink:href="#m03348415eb" y="124.27696027927401"/>
      </g>
     </g>
     <g id="text_12">
      <!-- 0.4 -->
      <defs>
       <path d="M 37.796875 64.3125  L 12.890625 25.390625  L 37.796875 25.390625  z M 35.203125 72.90625  L 47.609375 72.90625  L 47.609375 25.390625  L 58.015625 25.390625  L 58.015625 17.1875  L 47.609375 17.1875  L 47.609375 0  L 37.796875 0  L 37.796875 17.1875  L 4.890625 17.1875  L 4.890625 26.703125  z " id="BitstreamVeraSans-Roman-34"/>
      </defs>
      <g transform="translate(30.753569110776276 125.93258527927402)scale(0.06 -0.06)">
       <use xlink:href="#BitstreamVeraSans-Roman-30"/>
       <use x="63.623046875" xlink:href="#BitstreamVeraSans-Roman-2e"/>
       <use x="95.41015625" xlink:href="#BitstreamVeraSans-Roman-34"/>
      </g>
     </g>
    </g>
    <g id="ytick_4">
     <g id="line2d_20">
      <g>
       <use style="stroke:#000000;stroke-width:0.5;" x="44.29544411077627" xlink:href="#m03348415eb" y="89.56812020127661"/>
      </g>
     </g>
     <g id="text_13">
      <!-- 0.6 -->
      <g transform="translate(30.753569110776276 91.22374520127661)scale(0.06 -0.06)">
       <use xlink:href="#BitstreamVeraSans-Roman-30"/>
       <use x="63.623046875" xlink:href="#BitstreamVeraSans-Roman-2e"/>
       <use x="95.41015625" xlink:href="#BitstreamVeraSans-Roman-36"/>
      </g>
     </g>
    </g>
    <g id="ytick_5">
     <g id="line2d_21">
      <g>
       <use style="stroke:#000000;stroke-width:0.5;" x="44.29544411077627" xlink:href="#m03348415eb" y="54.859280123279206"/>
      </g>
     </g>
     <g id="text_14">
      <!-- 0.8 -->
      <defs>
       <path d="M 31.78125 34.625  Q 24.75 34.625 20.71875 30.859375  Q 16.703125 27.09375 16.703125 20.515625  Q 16.703125 13.921875 20.71875 10.15625  Q 24.75 6.390625 31.78125 6.390625  Q 38.8125 6.390625 42.859375 10.171875  Q 46.921875 13.96875 46.921875 20.515625  Q 46.921875 27.09375 42.890625 30.859375  Q 38.875 34.625 31.78125 34.625  M 21.921875 38.8125  Q 15.578125 40.375 12.03125 44.71875  Q 8.5 49.078125 8.5 55.328125  Q 8.5 64.0625 14.71875 69.140625  Q 20.953125 74.21875 31.78125 74.21875  Q 42.671875 74.21875 48.875 69.140625  Q 55.078125 64.0625 55.078125 55.328125  Q 55.078125 49.078125 51.53125 44.71875  Q 48 40.375 41.703125 38.8125  Q 48.828125 37.15625 52.796875 32.3125  Q 56.78125 27.484375 56.78125 20.515625  Q 56.78125 9.90625 50.3125 4.234375  Q 43.84375 -1.421875 31.78125 -1.421875  Q 19.734375 -1.421875 13.25 4.234375  Q 6.78125 9.90625 6.78125 20.515625  Q 6.78125 27.484375 10.78125 32.3125  Q 14.796875 37.15625 21.921875 38.8125  M 18.3125 54.390625  Q 18.3125 48.734375 21.84375 45.5625  Q 25.390625 42.390625 31.78125 42.390625  Q 38.140625 42.390625 41.71875 45.5625  Q 45.3125 48.734375 45.3125 54.390625  Q 45.3125 60.0625 41.71875 63.234375  Q 38.140625 66.40625 31.78125 66.40625  Q 25.390625 66.40625 21.84375 63.234375  Q 18.3125 60.0625 18.3125 54.390625  " id="BitstreamVeraSans-Roman-38"/>
      </defs>
      <g transform="translate(30.753569110776276 56.51490512327922)scale(0.06 -0.06)">
       <use xlink:href="#BitstreamVeraSans-Roman-30"/>
       <use x="63.623046875" xlink:href="#BitstreamVeraSans-Roman-2e"/>
       <use x="95.41015625" xlink:href="#BitstreamVeraSans-Roman-38"/>
      </g>
     </g>
    </g>
    <g id="ytick_6">
     <g id="line2d_22">
      <g>
       <use style="stroke:#000000;stroke-width:0.5;" x="44.29544411077627" xlink:href="#m03348415eb" y="20.15044004528181"/>
      </g>
     </g>
     <g id="text_15">
      <!-- 1.0 -->
      <g transform="translate(30.753569110776276 21.806065045281798)scale(0.06 -0.06)">
       <use xlink:href="#BitstreamVeraSans-Roman-31"/>
       <use x="63.623046875" xlink:href="#BitstreamVeraSans-Roman-2e"/>
       <use x="95.41015625" xlink:href="#BitstreamVeraSans-Roman-30"/>
      </g>
     </g>
    </g>
    <g id="text_16">
     <!-- micro L CO2 / min / animal -->
     <defs>
      <path d="M 39.40625 66.21875  Q 28.65625 66.21875 22.328125 58.203125  Q 16.015625 50.203125 16.015625 36.375  Q 16.015625 22.609375 22.328125 14.59375  Q 28.65625 6.59375 39.40625 6.59375  Q 50.140625 6.59375 56.421875 14.59375  Q 62.703125 22.609375 62.703125 36.375  Q 62.703125 50.203125 56.421875 58.203125  Q 50.140625 66.21875 39.40625 66.21875  M 39.40625 74.21875  Q 54.734375 74.21875 63.90625 63.9375  Q 73.09375 53.65625 73.09375 36.375  Q 73.09375 19.140625 63.90625 8.859375  Q 54.734375 -1.421875 39.40625 -1.421875  Q 24.03125 -1.421875 14.8125 8.828125  Q 5.609375 19.09375 5.609375 36.375  Q 5.609375 53.65625 14.8125 63.9375  Q 24.03125 74.21875 39.40625 74.21875  " id="BitstreamVeraSans-Roman-4f"/>
      <path d="M 9.8125 72.90625  L 19.671875 72.90625  L 19.671875 8.296875  L 55.171875 8.296875  L 55.171875 0  L 9.8125 0  z " id="BitstreamVeraSans-Roman-4c"/>
      <path d="M 54.890625 33.015625  L 54.890625 0  L 45.90625 0  L 45.90625 32.71875  Q 45.90625 40.484375 42.875 44.328125  Q 39.84375 48.1875 33.796875 48.1875  Q 26.515625 48.1875 22.3125 43.546875  Q 18.109375 38.921875 18.109375 30.90625  L 18.109375 0  L 9.078125 0  L 9.078125 54.6875  L 18.109375 54.6875  L 18.109375 46.1875  Q 21.34375 51.125 25.703125 53.5625  Q 30.078125 56 35.796875 56  Q 45.21875 56 50.046875 50.171875  Q 54.890625 44.34375 54.890625 33.015625  " id="BitstreamVeraSans-Roman-6e"/>
      <path d="M 34.28125 27.484375  Q 23.390625 27.484375 19.1875 25  Q 14.984375 22.515625 14.984375 16.5  Q 14.984375 11.71875 18.140625 8.90625  Q 21.296875 6.109375 26.703125 6.109375  Q 34.1875 6.109375 38.703125 11.40625  Q 43.21875 16.703125 43.21875 25.484375  L 43.21875 27.484375  z M 52.203125 31.203125  L 52.203125 0  L 43.21875 0  L 43.21875 8.296875  Q 40.140625 3.328125 35.546875 0.953125  Q 30.953125 -1.421875 24.3125 -1.421875  Q 15.921875 -1.421875 10.953125 3.296875  Q 6 8.015625 6 15.921875  Q 6 25.140625 12.171875 29.828125  Q 18.359375 34.515625 30.609375 34.515625  L 43.21875 34.515625  L 43.21875 35.40625  Q 43.21875 41.609375 39.140625 45  Q 35.0625 48.390625 27.6875 48.390625  Q 23 48.390625 18.546875 47.265625  Q 14.109375 46.140625 10.015625 43.890625  L 10.015625 52.203125  Q 14.9375 54.109375 19.578125 55.046875  Q 24.21875 56 28.609375 56  Q 40.484375 56 46.34375 49.84375  Q 52.203125 43.703125 52.203125 31.203125  " id="BitstreamVeraSans-Roman-61"/>
      <path d="M 30.609375 48.390625  Q 23.390625 48.390625 19.1875 42.75  Q 14.984375 37.109375 14.984375 27.296875  Q 14.984375 17.484375 19.15625 11.84375  Q 23.34375 6.203125 30.609375 6.203125  Q 37.796875 6.203125 41.984375 11.859375  Q 46.1875 17.53125 46.1875 27.296875  Q 46.1875 37.015625 41.984375 42.703125  Q 37.796875 48.390625 30.609375 48.390625  M 30.609375 56  Q 42.328125 56 49.015625 48.375  Q 55.71875 40.765625 55.71875 27.296875  Q 55.71875 13.875 49.015625 6.21875  Q 42.328125 -1.421875 30.609375 -1.421875  Q 18.84375 -1.421875 12.171875 6.21875  Q 5.515625 13.875 5.515625 27.296875  Q 5.515625 40.765625 12.171875 48.375  Q 18.84375 56 30.609375 56  " id="BitstreamVeraSans-Roman-6f"/>
      <path d="M 9.421875 75.984375  L 18.40625 75.984375  L 18.40625 0  L 9.421875 0  z " id="BitstreamVeraSans-Roman-6c"/>
      <path d="M 64.40625 67.28125  L 64.40625 56.890625  Q 59.421875 61.53125 53.78125 63.8125  Q 48.140625 66.109375 41.796875 66.109375  Q 29.296875 66.109375 22.65625 58.46875  Q 16.015625 50.828125 16.015625 36.375  Q 16.015625 21.96875 22.65625 14.328125  Q 29.296875 6.6875 41.796875 6.6875  Q 48.140625 6.6875 53.78125 8.984375  Q 59.421875 11.28125 64.40625 15.921875  L 64.40625 5.609375  Q 59.234375 2.09375 53.4375 0.328125  Q 47.65625 -1.421875 41.21875 -1.421875  Q 24.65625 -1.421875 15.125 8.703125  Q 5.609375 18.84375 5.609375 36.375  Q 5.609375 53.953125 15.125 64.078125  Q 24.65625 74.21875 41.21875 74.21875  Q 47.75 74.21875 53.53125 72.484375  Q 59.328125 70.75 64.40625 67.28125  " id="BitstreamVeraSans-Roman-43"/>
      <path d="M 25.390625 72.90625  L 33.6875 72.90625  L 8.296875 -9.28125  L 0 -9.28125  z " id="BitstreamVeraSans-Roman-2f"/>
      <path d="M 41.109375 46.296875  Q 39.59375 47.171875 37.8125 47.578125  Q 36.03125 48 33.890625 48  Q 26.265625 48 22.1875 43.046875  Q 18.109375 38.09375 18.109375 28.8125  L 18.109375 0  L 9.078125 0  L 9.078125 54.6875  L 18.109375 54.6875  L 18.109375 46.1875  Q 20.953125 51.171875 25.484375 53.578125  Q 30.03125 56 36.53125 56  Q 37.453125 56 38.578125 55.875  Q 39.703125 55.765625 41.0625 55.515625  z " id="BitstreamVeraSans-Roman-72"/>
     </defs>
     <g transform="translate(24.505756610776274 146.99832149027534)rotate(-90.0)scale(0.06 -0.06)">
      <use xlink:href="#BitstreamVeraSans-Roman-6d"/>
      <use x="97.412109375" xlink:href="#BitstreamVeraSans-Roman-69"/>
      <use x="125.1953125" xlink:href="#BitstreamVeraSans-Roman-63"/>
      <use x="180.17578125" xlink:href="#BitstreamVeraSans-Roman-72"/>
      <use x="221.2578125" xlink:href="#BitstreamVeraSans-Roman-6f"/>
      <use x="282.439453125" xlink:href="#BitstreamVeraSans-Roman-20"/>
      <use x="314.2265625" xlink:href="#BitstreamVeraSans-Roman-4c"/>
      <use x="369.939453125" xlink:href="#BitstreamVeraSans-Roman-20"/>
      <use x="401.7265625" xlink:href="#BitstreamVeraSans-Roman-43"/>
      <use x="471.55078125" xlink:href="#BitstreamVeraSans-Roman-4f"/>
      <use x="550.26171875" xlink:href="#BitstreamVeraSans-Roman-32"/>
      <use x="613.884765625" xlink:href="#BitstreamVeraSans-Roman-20"/>
      <use x="645.671875" xlink:href="#BitstreamVeraSans-Roman-2f"/>
      <use x="679.36328125" xlink:href="#BitstreamVeraSans-Roman-20"/>
      <use x="711.150390625" xlink:href="#BitstreamVeraSans-Roman-6d"/>
      <use x="808.5625" xlink:href="#BitstreamVeraSans-Roman-69"/>
      <use x="836.345703125" xlink:href="#BitstreamVeraSans-Roman-6e"/>
      <use x="899.724609375" xlink:href="#BitstreamVeraSans-Roman-20"/>
      <use x="931.51171875" xlink:href="#BitstreamVeraSans-Roman-2f"/>
      <use x="965.203125" xlink:href="#BitstreamVeraSans-Roman-20"/>
      <use x="996.990234375" xlink:href="#BitstreamVeraSans-Roman-61"/>
      <use x="1058.26953125" xlink:href="#BitstreamVeraSans-Roman-6e"/>
      <use x="1121.6484375" xlink:href="#BitstreamVeraSans-Roman-69"/>
      <use x="1149.43164062" xlink:href="#BitstreamVeraSans-Roman-6d"/>
      <use x="1246.84375" xlink:href="#BitstreamVeraSans-Roman-61"/>
      <use x="1308.12304688" xlink:href="#BitstreamVeraSans-Roman-6c"/>
     </g>
    </g>
   </g>
  </g>
 </g>
 <defs>
  <clipPath id="p73b443b126">
   <rect height="173.544200389987" width="186.87822441995104" x="49.29544411077627" y="20.15044004528181"/>
  </clipPath>
 </defs>
</g>
</svg>